<svg width="242" height="91" viewBox="0 0 242 91" fill="none" xmlns="http://www.w3.org/2000/svg">
<g clip-path="url(#clip0_43_11062)">
<g opacity="0.4">
<path d="M72.9001 42.37C72.6301 42.37 72.3601 42.31 72.1001 42.18L21.1701 16.59C19.0501 15.53 16.7801 14.94 14.4101 14.85C11.3001 14.73 8.4301 16.06 6.5101 18.49C4.5901 20.93 3.9701 24.04 4.8201 27.02C5.0901 27.96 4.5401 28.94 3.6001 29.21C2.6601 29.48 1.6801 28.93 1.4101 27.99C0.250101 23.9 1.1001 19.64 3.7301 16.3C6.3601 12.96 10.3101 11.13 14.5601 11.31C17.4401 11.42 20.2001 12.14 22.7701 13.43L73.7001 39.02C74.5801 39.46 74.9301 40.53 74.4901 41.4C74.1701 42.01 73.5501 42.37 72.9001 42.37Z" fill="white"/>
</g>
<g opacity="0.4">
<path d="M14.0101 74.2C9.9701 74.2 6.2401 72.4 3.7301 69.2C1.1001 65.86 0.250101 61.6 1.4101 57.51C1.6801 56.57 2.6601 56.02 3.6001 56.29C4.5401 56.56 5.0901 57.54 4.8201 58.48C3.9801 61.46 4.5901 64.57 6.5101 67C8.4301 69.44 11.3101 70.79 14.4101 70.64C16.7801 70.55 19.0501 69.96 21.1701 68.9L72.1001 43.32C72.9701 42.88 74.0401 43.23 74.4801 44.11C74.9201 44.99 74.5701 46.05 73.6901 46.49L22.7601 72.07C20.1901 73.36 17.4301 74.07 14.5501 74.19C14.3701 74.2 14.1901 74.2 14.0101 74.2Z" fill="white"/>
</g>
<path d="M2.04003 36.26C3.46003 38.92 6.76003 39.92 9.41003 38.5C12.07 37.08 13.07 33.78 11.65 31.13L9.71003 27.49C9.51003 27.11 9.03003 26.96 8.65003 27.17C8.27003 27.38 7.79003 27.23 7.59003 26.85L7.34003 26.37C6.97003 25.68 6.12003 25.42 5.43003 25.79L1.08003 28.11C0.390034 28.48 0.130034 29.33 0.500034 30.02L0.750034 30.5C0.950034 30.88 0.810034 31.36 0.430034 31.56C0.0500344 31.76 -0.0999656 32.24 0.110034 32.62L2.04003 36.26ZM7.55003 35.02C8.57003 34.48 9.69003 34.59 10.06 35.28C10.43 35.97 9.90003 36.96 8.88003 37.51C7.86003 38.05 6.74003 37.94 6.37003 37.25C6.00003 36.56 6.53003 35.56 7.55003 35.02Z" fill="white"/>
<g opacity="0.25">
<path d="M8.86994 37.5C9.88994 36.96 10.4199 35.96 10.0499 35.27C9.67994 34.58 8.55994 34.47 7.53994 35.01C6.52994 35.56 5.99994 36.56 6.35994 37.24C6.72994 37.93 7.84994 38.04 8.86994 37.5Z" fill="white"/>
</g>
<path d="M9.40999 46.99C6.74999 45.57 3.44999 46.58 2.03999 49.23L0.0999937 52.87C-0.100006 53.25 0.0399937 53.73 0.419994 53.93C0.799994 54.13 0.949994 54.61 0.739994 54.99L0.489994 55.47C0.119994 56.16 0.379994 57.01 1.06999 57.38L5.41999 59.7C6.10999 60.07 6.95999 59.81 7.32999 59.12L7.57999 58.64C7.77999 58.26 8.25999 58.11 8.63999 58.32C9.01999 58.52 9.49999 58.38 9.69999 58L11.64 54.36C13.07 51.71 12.07 48.4 9.40999 46.99ZM10.06 50.22C9.68999 50.91 8.56999 51.02 7.54999 50.48C6.52999 49.93 5.99999 48.94 6.35999 48.25C6.72999 47.56 7.84999 47.45 8.86999 47.99C9.88999 48.54 10.42 49.54 10.06 50.22Z" fill="white"/>
<g opacity="0.25">
<path d="M8.87009 47.99C7.85009 47.45 6.73009 47.56 6.36009 48.25C6.00009 48.94 6.53009 49.93 7.55009 50.48C8.57009 51.02 9.69009 50.91 10.0601 50.22C10.4201 49.54 9.89009 48.54 8.87009 47.99Z" fill="white"/>
</g>
<path d="M77.8199 45.85C77.3499 45.85 76.8699 45.74 76.4199 45.52L49.8299 32.1C48.2999 31.33 47.6799 29.46 48.4599 27.93C49.2299 26.4 51.0999 25.78 52.6299 26.56L79.2299 39.98C80.7599 40.75 81.3799 42.62 80.5999 44.15C80.0499 45.23 78.9599 45.85 77.8199 45.85Z" fill="white"/>
<path d="M51.2299 59.2699C50.0999 59.2699 48.9999 58.65 48.4599 57.5599C47.6899 56.0299 48.2999 54.1599 49.8299 53.3899L76.4299 39.9699C77.9599 39.1999 79.8299 39.8099 80.5999 41.3399C81.3699 42.8699 80.7599 44.7399 79.2299 45.5099L52.6299 58.9299C52.1799 59.1699 51.6999 59.2699 51.2299 59.2699Z" fill="white"/>
<path d="M227.44 45.85C225.73 45.85 224.34 44.46 224.34 42.75V19.4C224.34 12.13 218.42 6.21 211.15 6.21H206.41C199.14 6.21 193.22 12.13 193.22 19.4V26.45C193.22 37.15 184.52 45.85 173.82 45.85H168.96C158.34 45.85 149.64 37.21 149.56 26.59L149.51 19.31C149.46 12.09 143.54 6.21 136.32 6.21H131.46C124.19 6.21 118.27 12.13 118.27 19.4V26.45C118.27 37.15 109.57 45.85 98.87 45.85H77.82C76.11 45.85 74.72 44.46 74.72 42.75C74.72 41.04 76.11 39.65 77.82 39.65H98.86C106.13 39.65 112.05 33.73 112.05 26.46V19.4C112.05 8.7 120.75 0 131.45 0H136.31C146.93 0 155.63 8.64 155.71 19.26L155.76 26.54C155.81 33.76 161.73 39.64 168.95 39.64H173.81C181.08 39.64 187 33.72 187 26.45V19.4C187 8.7 195.71 0 206.4 0H211.14C221.84 0 230.54 8.7 230.54 19.4V42.75C230.55 44.46 229.16 45.85 227.44 45.85Z" fill="white"/>
<g opacity="0.2">
<path d="M227.44 42.75C219.63 42.75 213.29 49.08 213.29 56.9C213.29 64.72 219.62 71.05 227.44 71.05C235.25 71.05 241.59 64.72 241.59 56.9C241.59 49.08 235.26 42.75 227.44 42.75ZM227.44 67.07C221.82 67.07 217.26 62.51 217.26 56.89C217.26 51.27 221.82 46.71 227.44 46.71C233.06 46.71 237.62 51.27 237.62 56.89C237.62 62.51 233.06 67.07 227.44 67.07Z" fill="white"/>
</g>
<g opacity="0.6">
<path d="M227.44 46.72C221.82 46.72 217.26 51.28 217.26 56.9C217.26 62.52 221.82 67.08 227.44 67.08C233.06 67.08 237.62 62.52 237.62 56.9C237.62 51.27 233.06 46.72 227.44 46.72ZM227.44 64.54C223.22 64.54 219.8 61.12 219.8 56.9C219.8 52.68 223.22 49.26 227.44 49.26C231.66 49.26 235.08 52.68 235.08 56.9C235.08 61.12 231.66 64.54 227.44 64.54Z" fill="white"/>
</g>
<path d="M227.44 49.25C223.22 49.25 219.8 52.67 219.8 56.89C219.8 61.11 223.22 64.53 227.44 64.53C231.66 64.53 235.08 61.11 235.08 56.89C235.08 52.67 231.66 49.25 227.44 49.25ZM227.44 58.84C226.36 58.84 225.49 57.97 225.49 56.89C225.49 55.81 226.36 54.94 227.44 54.94C228.52 54.94 229.39 55.81 229.39 56.89C229.39 57.97 228.52 58.84 227.44 58.84Z" fill="white"/>
<g opacity="0.2">
<path d="M227.44 54.9399C226.36 54.9399 225.49 55.8099 225.49 56.8899C225.49 57.9699 226.36 58.8399 227.44 58.8399C228.52 58.8399 229.39 57.9699 229.39 56.8899C229.39 55.8099 228.52 54.9399 227.44 54.9399Z" fill="white"/>
</g>
</g>
<defs>
<clipPath id="clip0_43_11062">
<rect width="241.59" height="90.78" fill="white"/>
</clipPath>
</defs>
</svg>
